<?xml version="1.0" encoding="UTF-8"?>
<svg width="625px" height="214px" viewBox="0 0 625 214" version="1.1" xmlns="http://www.w3.org/2000/svg" xmlns:xlink="http://www.w3.org/1999/xlink">
    <!-- Generator: Sketch 41 (35326) - http://www.bohemiancoding.com/sketch -->
    <title>camkix white</title>
    <desc>Created with Sketch.</desc>
    <defs></defs>
    <g id="Page-1" stroke="none" stroke-width="1" fill="none" fill-rule="evenodd">
        <g id="camkix-white" fill="#FFFFFF">
            <g id="Page-1">
                <g id="Artboard">
                    <g id="Group-3">
                        <g id="Camkix_logo_white">
                            <g id="Group">
                                <g id="White_text" transform="translate(244.000000, 68.000000)">
                                    <path d="M100.329726,0.111916667 L131.55033,77.1862917 C130.704395,77.341 129.917708,77.5500208 129.188624,77.8207604 C128.457894,78.0890313 127.671207,78.2996979 126.826918,78.4544062 L113.808732,47.5785729 L86.6203089,47.5785729 L80.2840238,63.130875 C79.2076782,65.7436354 78.1329784,68.3728542 77.0582786,71.0234687 C75.981933,73.6732604 74.9450864,76.2267708 73.9477387,78.6848229 C73.5626242,78.6074687 73.159406,78.5301146 72.7380842,78.4544062 C72.3151166,78.3770521 71.8740454,78.2626667 71.4132246,78.1087813 L69.2243261,77.5327396 L100.329726,0.111916667 L100.329726,0.111916667 Z M111.850244,43.3150417 C111.542482,42.6221458 111.234719,41.8123958 110.928603,40.8874375 C110.62084,39.9616562 110.313078,39.0761979 110.006961,38.2285937 C109.161026,36.0700833 108.35459,33.9691771 107.587652,31.9266979 C106.819069,29.8842187 106.050486,27.8211667 105.283549,25.7391875 L100.329726,12.0944062 L88.4635918,43.3150417 L111.850244,43.3150417 L111.850244,43.3150417 Z" id="Shape"></path>
                                    <path d="M207.815339,0.111916667 L207.815339,77.4167083 L202.746311,77.4167083 L202.746311,14.5129583 C198.291162,20.0437813 193.663205,25.7852708 188.864086,31.7374271 C184.063322,37.6895833 179.474864,43.3932188 175.097067,48.8458646 L147.332618,14.2833646 L147.332618,77.4175313 L142.26359,77.4175313 L142.26359,0.112739583 L175.097067,40.6660729 L207.815339,0.111916667 L207.815339,0.111916667 Z" id="Shape"></path>
                                    <polygon id="Shape" points="297.097711 1.49441667 297.097711 77.4167083 291.799095 77.4167083 291.799095 1.49441667"></polygon>
                                    <path d="M380.851056,3.91379167 L350.782503,39.28275 C355.696827,45.0431667 360.728002,50.9961458 365.874382,57.1400417 C371.019117,63.2855833 376.012438,69.2360937 380.851056,74.9965104 L376.818875,77.99275 L347.671963,43.1998333 L318.179436,78.338375 L314.608076,74.7669167 L344.5606,39.28275 C339.721983,33.5996875 334.728661,27.7438125 329.583927,21.7126562 C324.437546,15.6847917 319.446693,9.82891667 314.608076,4.14338542 L318.063408,0.687135417 L347.67114,35.4800521 L376.933257,0.80234375 L380.851056,3.91379167 L380.851056,3.91379167 Z" id="Shape"></path>
                                    <polygon id="Shape" points="280.286806 74.7150729 276.741778 78.3145104 244.104972 39.8678438 230.805356 53.6327708 230.805356 77.5072292 225.667205 77.5072292 225.667205 1.0418125 230.805356 1.0418125 230.805356 46.3919271 274.845006 0.28884375 278.400732 3.97304167 247.958585 36.2486563"></polygon>
                                    <path d="M64.1157991,68.1778229 C60.3518812,71.3279479 57.0520756,73.4576563 52.6742786,75.1866042 C48.2973045,76.9139063 43.6882743,77.7779688 38.8496566,77.7779688 C33.4728661,77.7779688 28.4416911,76.7410938 23.7577775,74.6673438 C19.0722181,72.5927708 14.9824341,69.8113125 11.4884255,66.3147396 C7.99277106,62.8214583 5.24759611,58.7109896 3.25125486,53.9874479 C1.25326782,49.2647292 0.255097192,44.2523438 0.255097192,38.9527604 C0.255097192,33.5774688 1.25326782,28.5461563 3.25125486,23.8604688 C5.24759611,19.1764271 7.99277106,15.0857083 11.4884255,11.5907813 C14.9824341,8.09667708 19.0722181,5.33167708 23.7577775,3.29495833 C28.4416911,1.26070833 33.4728661,0.242760417 38.8496566,0.242760417 C42.9970432,0.242760417 47.0868272,0.953760417 51.1190086,2.37411458 C55.1511901,3.7969375 59.1957149,5.75465625 63.1670022,9.10557292 L59.9017581,12.551125 C56.9813067,10.4765521 52.7121317,8.00204167 49.3333283,6.92566667 C45.952879,5.85011458 42.4588704,5.31275 38.8496566,5.31275 C34.1640972,5.31275 29.7863002,6.19409375 25.7162657,7.95925 C21.6445853,9.72358333 18.0921512,12.1190938 15.0597862,15.1466042 C12.0249525,18.1749375 9.64514255,21.7406354 7.91706479,25.842875 C6.18898704,29.9451146 5.32494816,34.3337292 5.32494816,39.0111875 C5.32494816,43.6121146 6.18980994,47.962875 7.91706479,52.0651146 C9.64431965,56.1673542 12.0249525,59.733875 15.0597862,62.7613854 C18.0929741,65.7897188 21.6445853,68.2049792 25.7162657,70.0071667 C29.7863002,71.8093542 34.1649201,72.709625 38.8496566,72.709625 C42.9970432,72.709625 46.9905486,71.9220938 50.8318186,70.3478542 C54.6714428,68.7744375 57.4569395,66.9895313 60.8382117,64.1471771 L64.1157991,68.1778229 L64.1157991,68.1778229 Z" id="Shape"></path>
                                </g>
                                <g id="Group-2">
                                    <g id="White_logo">
                                        <path d="M180.121805,167.537963 C193.400322,150.881802 202.126863,129.714264 202.126863,106.757912 C202.126863,81.7491113 192.231002,59.3455925 176.751178,42.089485 L121.448834,99.1039568 L180.121805,167.537963 L180.121805,167.537963 Z" id="Shape"></path>
                                        <path d="M106.757411,0.251606667 C47.9365834,0.251606667 0.251606667,47.9365834 0.251606667,106.757411 C0.251606667,165.578238 47.9365834,213.264217 106.757411,213.264217 C165.578238,213.264217 213.266222,165.578238 213.266222,106.757411 C213.266222,47.9365834 165.578238,0.251606667 106.757411,0.251606667 L106.757411,0.251606667 Z M106.757411,208.252132 C50.7032543,208.252132 5.26268926,162.811567 5.26268926,106.757411 C5.26268926,50.7032543 50.7032543,5.26268926 106.757411,5.26268926 C162.811567,5.26268926 208.252132,50.7032543 208.252132,106.757411 C208.252132,162.811567 162.811567,208.252132 106.757411,208.252132 L106.757411,208.252132 Z" id="Shape"></path>
                                        <path d="M84.2030281,105.420688 L84.2030281,32.2442465 C84.2030281,32.2442465 116.280372,21.2176595 147.188397,40.9316934 L84.2030281,105.420688 L84.2030281,105.420688 Z" id="Shape"></path>
                                        <path d="M84.2030281,138.500449 L84.2030281,181.103171 C84.2030281,181.103171 117.617095,192.296661 148.692022,171.58021 L103.416355,118.619011 L84.2030281,138.500449 L84.2030281,138.500449 Z" id="Shape"></path>
                                        <path d="M62.1498541,170.745196 L62.1498541,42.9370286 C62.1498541,42.9370286 28.4019821,64.4889941 28.4019821,106.590508 C28.4019821,148.692022 62.1498541,170.745196 62.1498541,170.745196 L62.1498541,170.745196 Z" id="Shape"></path>
                                    </g>
                                    <g id="_xAE_" transform="translate(184.983051, 12.694915)">
                                        <path d="M6.44052923,0.351848367 C9.89335459,0.351848367 12.6434856,3.15861597 12.6434856,6.66707547 C12.6434856,10.2316703 9.89335459,13.0103703 6.41246156,13.0103703 C2.9601374,13.0103703 0.153369801,10.2316703 0.153369801,6.66707547 C0.153369801,3.15861597 2.96063861,0.351848367 6.41246156,0.351848367 L6.44052923,0.351848367 L6.44052923,0.351848367 Z M6.41246156,1.33421703 C3.63376163,1.33421703 1.36027987,3.71996949 1.36027987,6.66707547 C1.36027987,9.67031681 3.63376163,12.0280016 6.44052923,12.0280016 C9.24779804,12.0560693 11.4927109,9.67031681 11.4927109,6.69514315 C11.4927109,3.71996949 9.24779804,1.33421703 6.44052923,1.33421703 L6.41246156,1.33421703 L6.41246156,1.33421703 Z M4.11091212,10.343941 L4.11091212,3.29895435 C4.70033332,3.21475132 5.26168684,3.13054829 6.10371712,3.13054829 C7.17028881,3.13054829 7.87198071,3.3550897 8.29299585,3.66383414 C8.71401099,3.97257858 8.9385524,4.44972907 8.9385524,5.12335329 C8.9385524,6.0495866 8.32106353,6.61094012 7.56323627,6.83548153 L7.56323627,6.89161688 C8.18072515,7.00388759 8.60174029,7.56524111 8.74257987,8.60374512 C8.91098593,9.69838449 9.07939199,10.1193996 9.19166269,10.343941 L8.0128203,10.343941 C7.84441424,10.1193996 7.67550698,9.47384308 7.53566981,8.54760977 C7.36726375,7.64944414 6.91818093,7.31263202 6.0200153,7.31263202 L5.23462158,7.31263202 L5.23462158,10.343941 L4.11091212,10.343941 Z M5.23361916,6.44253407 L6.04758177,6.44253407 C6.97381508,6.44253407 7.75971001,6.10572195 7.75971001,5.235624 C7.75971001,4.61813512 7.31062719,4.00064625 6.04758177,4.00064625 C5.68220077,4.00064625 5.43009289,4.02871393 5.23361916,4.0567816 L5.23361916,6.44253407 L5.23361916,6.44253407 Z" id="Shape"></path>
                                    </g>
                                </g>
                            </g>
                        </g>
                    </g>
                </g>
            </g>
        </g>
    </g>
</svg>