<?xml version="1.0" encoding="UTF-8"?>
<svg width="359px" height="121px" viewBox="0 0 359 121" version="1.1" xmlns="http://www.w3.org/2000/svg" xmlns:xlink="http://www.w3.org/1999/xlink">
    <!-- Generator: Sketch 41.2 (35397) - http://www.bohemiancoding.com/sketch -->
    <title>Group</title>
    <desc>Created with Sketch.</desc>
    <defs>
        <path d="M60,9 C60,9 55.7059214,12.1177056 53.6624702,13.8453293 C52.5265458,14.8056898 50.4618731,17.0639524 50.4618731,17.0639524 L57.7309366,21.0475445 C57.7309366,21.0475445 59.2721462,19.5371073 60.0000001,18.8314342 C61.6951674,17.1879258 65.9701443,13.8453293 65.9701443,13.8453293 L60,9 Z" id="path-1"></path>
        <polygon id="path-3" points="57 6 53.5997409 13.8630624 56.0051097 15.5973759 60.016144 18.8931293 70 16"></polygon>
        <filter x="-50%" y="-50%" width="200%" height="200%" filterUnits="objectBoundingBox" id="filter-4">
            <feOffset dx="0" dy="1" in="SourceAlpha" result="shadowOffsetOuter1"></feOffset>
            <feGaussianBlur stdDeviation="1" in="shadowOffsetOuter1" result="shadowBlurOuter1"></feGaussianBlur>
            <feColorMatrix values="0 0 0 0 0   0 0 0 0 0   0 0 0 0 0  0 0 0 0.229194973 0" type="matrix" in="shadowBlurOuter1"></feColorMatrix>
        </filter>
    </defs>
    <g id="Page-1" stroke="none" stroke-width="1" fill="none" fill-rule="evenodd">
        <g id="Artboard-3" transform="translate(-662.000000, -715.000000)">
            <g id="Group" transform="translate(666.000000, 719.000000)">
                <path d="M177.562506,41.8797069 C179.610517,41.8797069 181.58383,42.3170359 183.482506,43.1917069 C185.381183,44.066378 187.045166,45.2183664 188.474506,46.6477069 C189.903847,48.0770474 191.055835,49.7410308 191.930506,51.6397069 C192.805177,53.5383831 193.242506,55.5116967 193.242506,57.5597069 C193.242506,58.4130445 192.92251,59.1703703 192.282506,59.8317069 C191.642503,60.4930436 190.831845,60.8023738 189.850506,60.7597069 L168.346506,60.7597069 C169.583846,62.9783847 171.023832,64.5570356 172.666506,65.4957069 C174.309181,66.4343783 175.941165,66.9037069 177.562506,66.9037069 C178.458511,66.9037069 179.226503,66.7970413 179.866506,66.5837069 C180.50651,66.3703725 181.061171,66.1783744 181.530506,66.0077069 C182.085176,65.623705 182.703836,65.4317069 183.386506,65.4317069 C184.325178,65.5170407 185.082504,65.8903703 185.658506,66.5517069 C186.234509,67.2130436 186.522506,67.9277031 186.522506,68.6957069 C186.522506,69.037042 186.469174,69.399705 186.362506,69.7837069 C186.255839,70.1677088 186.031841,70.5090388 185.690506,70.8077069 L185.754506,70.6797069 C184.645168,71.5757114 183.386513,72.215705 181.978506,72.5997069 C180.570499,72.9837088 179.077181,73.19704 177.498506,73.2397069 C175.407829,73.3250407 173.413183,72.9517111 171.514506,72.1197069 C169.61583,71.2877028 167.951847,70.1463808 166.522506,68.6957069 C165.093166,67.245033 163.962511,65.5597165 163.130506,63.6397069 C162.298502,61.7196973 161.882506,59.6930509 161.882506,57.5597069 C161.882506,55.5116967 162.298502,53.5383831 163.130506,51.6397069 C163.962511,49.7410308 165.103833,48.0770474 166.554506,46.6477069 C168.00518,45.2183664 169.669164,44.066378 171.546506,43.1917069 C173.423849,42.3170359 175.429162,41.8797069 177.562506,41.8797069 Z M186.778506,54.1037069 C185.754501,52.3970317 184.442514,50.9997124 182.842506,49.9117069 C181.242498,48.8237015 179.482516,48.2797069 177.562506,48.2797069 C175.557163,48.2797069 173.754514,48.834368 172.154506,49.9437069 C170.554498,51.0530458 169.306511,52.4183655 168.410506,54.0397069 C168.325173,54.1250407 168.282506,54.2103732 168.282506,54.2957069 L186.842506,54.2957069 C186.79984,54.2957069 186.778506,54.2743738 186.778506,54.2317069 L186.778506,54.1037069 Z" id="Combined-Shape" fill="#3289EA" transform="translate(177.562506, 57.565661) rotate(-23.000000) translate(-177.562506, -57.565661) "></path>
                <path d="M145.136,72.96 C144.325329,72.96 143.632003,72.6613363 143.056,72.064 C142.479997,71.4666637 142.128001,70.7413376 142,69.888 L142,57.024 C142.042667,54.9333229 142.479996,52.992009 143.312,51.2 C144.144004,49.407991 145.263993,47.8400067 146.672,46.496 C148.080007,45.1519933 149.711991,44.0853373 151.568,43.296 C153.424009,42.5066627 155.397323,42.0693338 157.488,41.984 C158.298671,42.0266669 159.002664,42.3679968 159.6,43.008 C160.197336,43.6480032 160.559999,44.3519962 160.688,45.12 C160.602666,45.9306707 160.261336,46.6453302 159.664,47.264 C159.066664,47.8826698 158.341338,48.2133331 157.488,48.256 C156.25066,48.256 155.077339,48.4906643 153.968,48.96 C152.858661,49.4293357 151.888004,50.0799958 151.056,50.912 C150.223996,51.7440042 149.562669,52.7146611 149.072,53.824 C148.581331,54.9333389 148.336,56.1493267 148.336,57.472 L148.336,70.208 C148.207999,70.933337 147.856003,71.5733306 147.28,72.128 C146.703997,72.6826694 145.989338,72.96 145.136,72.96 L145.136,72.96 Z M200.944,32 C201.712003,32 202.394663,32.2986637 202.992,32.896 C203.589336,33.4933363 203.951999,34.2399955 204.08,35.136 L204.08,45.12 C205.872009,43.9679942 207.567992,43.1680022 209.168,42.72 C210.768008,42.2719978 212.165327,42.048 213.36,42.048 C215.450677,42.048 217.434657,42.4319962 219.312,43.2 C221.189342,43.9680038 222.831993,45.0346598 224.24,46.4 C225.648007,47.7653402 226.767995,49.3653242 227.6,51.2 C228.432004,53.0346758 228.848,54.9973229 228.848,57.088 L228.848,69.824 C228.848,70.6773376 228.538669,71.4133302 227.92,72.032 C227.30133,72.6506698 226.544004,72.9813331 225.648,73.024 C224.837329,73.024 224.144002,72.7360029 223.568,72.16 C222.991997,71.5839971 222.64,70.8693376 222.512,70.016 L222.512,57.536 C222.512,56.2986605 222.277335,55.1253389 221.808,54.016 C221.338664,52.9066611 220.69867,51.9253376 219.888,51.072 C219.077329,50.2186624 218.106672,49.5466691 216.976,49.056 C215.845327,48.5653309 214.640006,48.32 213.36,48.32 C212.12266,48.32 210.981338,48.5439978 209.936,48.992 C208.890661,49.4400022 207.952004,50.0586627 207.12,50.848 C206.287995,51.6373373 205.605336,52.565328 205.072,53.632 C204.538664,54.698672 204.208,55.8506605 204.08,57.088 L204.08,69.824 C204.08,70.6773376 203.781336,71.4133302 203.184,72.032 C202.586663,72.6506698 201.818671,72.9813331 200.88,73.024 C200.154663,73.024 199.514669,72.7253363 198.96,72.128 C198.40533,71.5306637 198.021334,70.8053376 197.808,69.952 L197.808,34.816 C197.978667,34.090663 198.330664,33.4400029 198.864,32.864 C199.397336,32.2879971 200.090662,32 200.944,32 L200.944,32 Z M236.079999,41.856 C236.933337,41.856 237.690663,42.122664 238.351999,42.656 C239.013336,43.189336 239.343999,43.8826624 239.343999,44.736 L239.343999,57.344 C239.343999,58.5813395 239.578664,59.7546611 240.047999,60.864 C240.517335,61.9733389 241.157329,62.9439958 241.967999,63.776 C242.77867,64.6080042 243.749327,65.2693309 244.879999,65.76 C246.010672,66.2506691 247.215993,66.496 248.495999,66.496 C249.648005,66.496 250.778661,66.2720022 251.887999,65.824 C252.997338,65.3759978 253.989328,64.7680038 254.863999,64 C255.73867,63.2319962 256.431997,62.3040054 256.943999,61.216 C257.456002,60.1279946 257.711999,58.9440064 257.711999,57.664 L257.711999,44.928 C257.711999,44.0746624 258.010663,43.3493363 258.607999,42.752 C259.205336,42.1546637 259.951995,41.856 260.847999,41.856 C261.701337,41.856 262.447996,42.122664 263.087999,42.656 C263.728003,43.189336 264.047999,43.8826624 264.047999,44.736 L264.047999,79.872 C264.047999,80.7253376 263.728003,81.4293306 263.087999,81.984 C262.447996,82.5386694 261.701337,82.816 260.847999,82.816 C260.037329,82.816 259.312003,82.5280029 258.671999,81.952 C258.031996,81.3759971 257.711999,80.6186714 257.711999,79.68 L257.711999,69.888 C256.005324,70.954672 254.373341,71.7119978 252.815999,72.16 C251.258658,72.6080022 249.818673,72.832 248.495999,72.832 C246.405322,72.832 244.421342,72.4266707 242.543999,71.616 C240.666657,70.8053293 239.01334,69.696007 237.583999,68.288 C236.154659,66.879993 235.024004,65.1946765 234.191999,63.232 C233.359995,61.2693235 232.943999,59.1360115 232.943999,56.832 L232.943999,44.928 C232.943999,44.0746624 233.242663,43.3493363 233.839999,42.752 C234.437336,42.1546637 235.183995,41.856 236.079999,41.856 L236.079999,41.856 Z M296.751999,32.064 C297.477336,32.0213331 298.159996,32.3093302 298.799999,32.928 C299.440002,33.5466698 299.759999,34.218663 299.759999,34.944 L299.759999,57.408 C299.759999,59.4986771 299.333337,61.4826573 298.479999,63.36 C297.626662,65.2373427 296.474673,66.879993 295.023999,68.288 C293.573325,69.696007 291.920009,70.8159958 290.063999,71.648 C288.20799,72.4800042 286.256009,72.896 284.207999,72.896 C282.117322,72.896 280.133342,72.4906707 278.255999,71.68 C276.378657,70.8693293 274.736006,69.760007 273.327999,68.352 C271.919992,66.943993 270.800003,65.3013427 269.967999,63.424 C269.135995,61.5466573 268.719999,59.541344 268.719999,57.408 C268.719999,55.1039885 269.093329,53.0773421 269.839999,51.328 C270.58667,49.5786579 271.706658,47.9360077 273.199999,46.4 L273.199999,46.464 C274.778674,44.9706592 276.517323,43.8400038 278.415999,43.072 C280.314675,42.3039962 282.266656,41.92 284.271999,41.92 C285.466672,41.92 286.885324,42.1119981 288.527999,42.496 C290.170674,42.8800019 291.802658,43.6266611 293.423999,44.736 L293.423999,35.264 C293.423999,34.8373312 293.509332,34.4320019 293.679999,34.048 C293.850667,33.6639981 294.074665,33.3120016 294.351999,32.992 C294.629334,32.6719984 294.959997,32.4266675 295.343999,32.256 C295.728001,32.0853325 296.111997,32.0213331 296.495999,32.064 L296.751999,32.064 Z M293.423999,57.408 C293.423999,56.2559942 293.178668,55.1253389 292.687999,54.016 C292.19733,52.9066611 291.525337,51.914671 290.671999,51.04 C289.818662,50.165329 288.837338,49.4720026 287.727999,48.96 C286.61866,48.4479974 285.445339,48.192 284.207999,48.192 C282.97066,48.192 281.786672,48.4373309 280.655999,48.928 C279.525327,49.4186691 278.544003,50.0799958 277.711999,50.912 C276.879995,51.7440042 276.218668,52.7253277 275.727999,53.856 C275.23733,54.9866723 274.991999,56.1706605 274.991999,57.408 C274.991999,58.6880064 275.23733,59.8826611 275.727999,60.992 C276.218668,62.1013389 276.879995,63.0719958 277.711999,63.904 C278.544003,64.7360042 279.525327,65.3973309 280.655999,65.888 C281.786672,66.3786691 282.97066,66.624 284.207999,66.624 C285.445339,66.624 286.61866,66.3786691 287.727999,65.888 C288.837338,65.3973309 289.818662,64.7360042 290.671999,63.904 C291.525337,63.0719958 292.19733,62.1013389 292.687999,60.992 C293.178668,59.8826611 293.423999,58.6880064 293.423999,57.408 L293.423999,57.408 Z M307.951999,72.96 C307.141328,72.96 306.448002,72.6613363 305.871999,72.064 C305.295996,71.4666637 304.944,70.7413376 304.815999,69.888 L304.815999,57.024 C304.858666,54.9333229 305.295995,52.992009 306.127999,51.2 C306.960003,49.407991 308.079992,47.8400067 309.487999,46.496 C310.896006,45.1519933 312.52799,44.0853373 314.383999,43.296 C316.240008,42.5066627 318.213322,42.0693338 320.303999,41.984 C321.11467,42.0266669 321.818663,42.3679968 322.415999,43.008 C323.013335,43.6480032 323.375998,44.3519962 323.503999,45.12 C323.418665,45.9306707 323.077335,46.6453302 322.479999,47.264 C321.882663,47.8826698 321.157337,48.2133331 320.303999,48.256 C319.06666,48.256 317.893338,48.4906643 316.783999,48.96 C315.67466,49.4293357 314.704003,50.0799958 313.871999,50.912 C313.039995,51.7440042 312.378668,52.7146611 311.887999,53.824 C311.39733,54.9333389 311.151999,56.1493267 311.151999,57.472 L311.151999,70.208 C311.023998,70.933337 310.672002,71.5733306 310.095999,72.128 C309.519996,72.6826694 308.805337,72.96 307.951999,72.96 L307.951999,72.96 Z M339.503999,42.56 C341.594676,42.56 343.56799,42.9759958 345.423999,43.808 C347.280008,44.6400042 348.911992,45.759993 350.319999,47.168 C351.728006,48.576007 352.847995,50.2186573 353.679999,52.096 C354.512003,53.9733427 354.927999,55.978656 354.927999,58.112 C354.927999,60.245344 354.52267,62.2399907 353.711999,64.096 C352.901328,65.9520093 351.802672,67.583993 350.415999,68.992 C349.029325,70.400007 347.397342,71.5093293 345.519999,72.32 C343.642656,73.1306707 341.61601,73.536 339.439999,73.536 C337.306655,73.536 335.301342,73.1520038 333.423999,72.384 C331.546656,71.6159962 329.904006,70.5386736 328.495999,69.152 C327.087992,67.7653264 325.97867,66.1333427 325.167999,64.256 C324.357328,62.3786573 323.951999,60.3306778 323.951999,58.112 C323.951999,55.978656 324.346662,53.9840093 325.135999,52.128 C325.925336,50.2719907 327.023992,48.6506736 328.431999,47.264 C329.840006,45.8773264 331.493323,44.7680042 333.391999,43.936 C335.290675,43.1039958 337.327988,42.6453338 339.503999,42.56 L339.503999,42.56 Z M339.439999,48.896 C338.202659,48.896 337.018671,49.1306643 335.887999,49.6 C334.757327,50.0693357 333.776003,50.7199958 332.943999,51.552 C332.111995,52.3840042 331.450668,53.3546611 330.959999,54.464 C330.46933,55.5733389 330.223999,56.7893267 330.223999,58.112 C330.223999,59.3493395 330.46933,60.5333277 330.959999,61.664 C331.450668,62.7946723 332.111995,63.7866624 332.943999,64.64 C333.776003,65.4933376 334.757327,66.1653309 335.887999,66.656 C337.018671,67.1466691 338.202659,67.392 339.439999,67.392 C340.677338,67.392 341.861327,67.1466691 342.991999,66.656 C344.122671,66.1653309 345.103995,65.4933376 345.935999,64.64 C346.768003,63.7866624 347.42933,62.7946723 347.919999,61.664 C348.410668,60.5333277 348.655999,59.3493395 348.655999,58.112 C348.527998,55.5946541 347.632007,53.4720086 345.967999,51.744 C344.303991,50.0159914 342.149345,49.0666675 339.503999,48.896 L339.439999,48.896 Z" id="rehydro-copy" fill="#3289EA"></path>
                <g id="Page-1">
                    <path d="M60.0119667,14.53535 C51.3851148,5.83235 43.6030222,0.1286 42.7291333,0.1286 C40.7057444,0.1286 0.836244444,31.34735 0.836244444,59.1191 C0.836244444,93.5801 35.27195,112.999999 60.0119685,112.999999 C85.5250425,112.999999 119.176485,93.5801 119.176485,59.1191 C119.176485,31.34735 79.3249111,0.1286 77.2835963,0.1286 C76.4164296,0.1286 68.6365778,5.83235 60.0119667,14.53535" id="Stroke-1" stroke="#3289EA" stroke-width="8"></path>
                    <path d="M60.0056926,66.412025 C49.3375259,66.412025 40.6927481,59.185025 40.6927481,44.647775 C40.6927481,30.110525 59.0735444,13.773275 60.0056926,13.773275 C60.9490444,13.773275 79.3208794,30.2955485 79.3208778,44.647775 C79.3208762,59.0000015 70.6738593,66.412025 60.0056926,66.412025 Z" id="Stroke-3" stroke="#3289EA" stroke-width="8"></path>
                    <mask id="mask-2" fill="white">
                        <use xlink:href="#path-1"></use>
                    </mask>
                    <use id="Mask" fill="#3289EA" xlink:href="#path-1"></use>
                    <g id="Path-16" mask="url(#mask-2)">
                        <use fill="black" fill-opacity="1" filter="url(#filter-4)" xlink:href="#path-3"></use>
                        <use fill="#3289EA" fill-rule="evenodd" xlink:href="#path-3"></use>
                    </g>
                </g>
            </g>
        </g>
    </g>
</svg>