<?xml version="1.0" encoding="UTF-8"?>
<svg width="128px" height="121px" viewBox="0 0 128 121" version="1.1" xmlns="http://www.w3.org/2000/svg" xmlns:xlink="http://www.w3.org/1999/xlink">
    <!-- Generator: Sketch 41.2 (35397) - http://www.bohemiancoding.com/sketch -->
    <title>Page 1</title>
    <desc>Created with Sketch.</desc>
    <defs>
        <path d="M60,9 C60,9 55.7059214,12.1177056 53.6624702,13.8453293 C52.5265458,14.8056898 50.4618731,17.0639524 50.4618731,17.0639524 L57.7309366,21.0475445 C57.7309366,21.0475445 59.2721462,19.5371073 60.0000001,18.8314342 C61.6951674,17.1879258 65.9701443,13.8453293 65.9701443,13.8453293 L60,9 Z" id="path-1"></path>
        <polygon id="path-3" points="57 6 53.5997409 13.8630624 56.0051097 15.5973759 60.016144 18.8931293 70 16"></polygon>
        <filter x="-50%" y="-50%" width="200%" height="200%" filterUnits="objectBoundingBox" id="filter-4">
            <feOffset dx="0" dy="1" in="SourceAlpha" result="shadowOffsetOuter1"></feOffset>
            <feGaussianBlur stdDeviation="1" in="shadowOffsetOuter1" result="shadowBlurOuter1"></feGaussianBlur>
            <feColorMatrix values="0 0 0 0 0   0 0 0 0 0   0 0 0 0 0  0 0 0 0.229194973 0" type="matrix" in="shadowBlurOuter1"></feColorMatrix>
        </filter>
    </defs>
    <g id="Page-1" stroke="none" stroke-width="1" fill="none" fill-rule="evenodd">
        <g id="Artboard-3" transform="translate(-1098.000000, -715.000000)">
            <g id="Group" transform="translate(1102.000000, 719.000000)">
                <g id="Page-1">
                    <path d="M60.0119667,14.53535 C51.3851148,5.83235 43.6030222,0.1286 42.7291333,0.1286 C40.7057444,0.1286 0.836244444,31.34735 0.836244444,59.1191 C0.836244444,93.5801 35.27195,112.999999 60.0119685,112.999999 C85.5250425,112.999999 119.176485,93.5801 119.176485,59.1191 C119.176485,31.34735 79.3249111,0.1286 77.2835963,0.1286 C76.4164296,0.1286 68.6365778,5.83235 60.0119667,14.53535" id="Stroke-1" stroke="#3289EA" stroke-width="8"></path>
                    <path d="M60.0056926,66.412025 C49.3375259,66.412025 40.6927481,59.185025 40.6927481,44.647775 C40.6927481,30.110525 59.0735444,13.773275 60.0056926,13.773275 C60.9490444,13.773275 79.3208794,30.2955485 79.3208778,44.647775 C79.3208762,59.0000015 70.6738593,66.412025 60.0056926,66.412025 Z" id="Stroke-3" stroke="#3289EA" stroke-width="8"></path>
                    <mask id="mask-2" fill="white">
                        <use xlink:href="#path-1"></use>
                    </mask>
                    <use id="Mask" fill="#3289EA" xlink:href="#path-1"></use>
                    <g id="Path-16" mask="url(#mask-2)">
                        <use fill="black" fill-opacity="1" filter="url(#filter-4)" xlink:href="#path-3"></use>
                        <use fill="#3289EA" fill-rule="evenodd" xlink:href="#path-3"></use>
                    </g>
                </g>
            </g>
        </g>
    </g>
</svg>