<?xml version="1.0" encoding="UTF-8"?>
<svg width="360px" height="121px" viewBox="0 0 360 121" version="1.1" xmlns="http://www.w3.org/2000/svg" xmlns:xlink="http://www.w3.org/1999/xlink">
    <!-- Generator: Sketch 41.2 (35397) - http://www.bohemiancoding.com/sketch -->
    <title>Group</title>
    <desc>Created with Sketch.</desc>
    <defs>
        <path d="M10,9.76996262e-14 C10,9.76996262e-14 5.70592142,3.11770561 3.66247016,4.84532928 C2.52654579,5.80568976 0.461873108,8.06395245 0.461873108,8.06395245 L7.73093658,12.0475445 C7.73093658,12.0475445 9.27214623,10.5371073 10.0000001,9.83143425 C11.6951674,8.18792581 15.9701443,4.84532928 15.9701443,4.84532928 L10,9.76996262e-14 Z" id="path-1"></path>
        <polygon id="path-3" points="7 -3 3.54016888 4.82061815 6.75006425 7.19646549 10.016144 9.89312935 20 7"></polygon>
        <filter x="-50%" y="-50%" width="200%" height="200%" filterUnits="objectBoundingBox" id="filter-4">
            <feOffset dx="0" dy="1" in="SourceAlpha" result="shadowOffsetOuter1"></feOffset>
            <feGaussianBlur stdDeviation="1" in="shadowOffsetOuter1" result="shadowBlurOuter1"></feGaussianBlur>
            <feColorMatrix values="0 0 0 0 0   0 0 0 0 0   0 0 0 0 0  0 0 0 0.229194973 0" type="matrix" in="shadowBlurOuter1"></feColorMatrix>
        </filter>
    </defs>
    <g id="Page-1" stroke="none" stroke-width="1" fill="none" fill-rule="evenodd">
        <g id="Artboard-3" transform="translate(-1069.000000, -380.000000)">
            <g id="Group" transform="translate(1073.000000, 384.000000)">
                <path d="M177.562506,41.8797069 C179.610517,41.8797069 181.58383,42.3170359 183.482506,43.1917069 C185.381183,44.066378 187.045166,45.2183664 188.474506,46.6477069 C189.903847,48.0770474 191.055835,49.7410308 191.930506,51.6397069 C192.805177,53.5383831 193.242506,55.5116967 193.242506,57.5597069 C193.242506,58.4130445 192.92251,59.1703703 192.282506,59.8317069 C191.642503,60.4930436 190.831845,60.8023738 189.850506,60.7597069 L168.346506,60.7597069 C169.583846,62.9783847 171.023832,64.5570356 172.666506,65.4957069 C174.309181,66.4343783 175.941165,66.9037069 177.562506,66.9037069 C178.458511,66.9037069 179.226503,66.7970413 179.866506,66.5837069 C180.50651,66.3703725 181.061171,66.1783744 181.530506,66.0077069 C182.085176,65.623705 182.703836,65.4317069 183.386506,65.4317069 C184.325178,65.5170407 185.082504,65.8903703 185.658506,66.5517069 C186.234509,67.2130436 186.522506,67.9277031 186.522506,68.6957069 C186.522506,69.037042 186.469174,69.399705 186.362506,69.7837069 C186.255839,70.1677088 186.031841,70.5090388 185.690506,70.8077069 L185.754506,70.6797069 C184.645168,71.5757114 183.386513,72.215705 181.978506,72.5997069 C180.570499,72.9837088 179.077181,73.19704 177.498506,73.2397069 C175.407829,73.3250407 173.413183,72.9517111 171.514506,72.1197069 C169.61583,71.2877028 167.951847,70.1463808 166.522506,68.6957069 C165.093166,67.245033 163.962511,65.5597165 163.130506,63.6397069 C162.298502,61.7196973 161.882506,59.6930509 161.882506,57.5597069 C161.882506,55.5116967 162.298502,53.5383831 163.130506,51.6397069 C163.962511,49.7410308 165.103833,48.0770474 166.554506,46.6477069 C168.00518,45.2183664 169.669164,44.066378 171.546506,43.1917069 C173.423849,42.3170359 175.429162,41.8797069 177.562506,41.8797069 Z M186.778506,54.1037069 C185.754501,52.3970317 184.442514,50.9997124 182.842506,49.9117069 C181.242498,48.8237015 179.482516,48.2797069 177.562506,48.2797069 C175.557163,48.2797069 173.754514,48.834368 172.154506,49.9437069 C170.554498,51.0530458 169.306511,52.4183655 168.410506,54.0397069 C168.325173,54.1250407 168.282506,54.2103732 168.282506,54.2957069 L186.842506,54.2957069 C186.79984,54.2957069 186.778506,54.2743738 186.778506,54.2317069 L186.778506,54.1037069 Z" id="Combined-Shape" fill="#FFFFFF" transform="translate(177.562506, 57.565661) rotate(-23.000000) translate(-177.562506, -57.565661) "></path>
                <path d="M146.136,72.96 C145.325329,72.96 144.632003,72.6613363 144.056,72.064 C143.479997,71.4666637 143.128001,70.7413376 143,69.888 L143,57.024 C143.042667,54.9333229 143.479996,52.992009 144.312,51.2 C145.144004,49.407991 146.263993,47.8400067 147.672,46.496 C149.080007,45.1519933 150.711991,44.0853373 152.568,43.296 C154.424009,42.5066627 156.397323,42.0693338 158.488,41.984 C159.298671,42.0266669 160.002664,42.3679968 160.6,43.008 C161.197336,43.6480032 161.559999,44.3519962 161.688,45.12 C161.602666,45.9306707 161.261336,46.6453302 160.664,47.264 C160.066664,47.8826698 159.341338,48.2133331 158.488,48.256 C157.25066,48.256 156.077339,48.4906643 154.968,48.96 C153.858661,49.4293357 152.888004,50.0799958 152.056,50.912 C151.223996,51.7440042 150.562669,52.7146611 150.072,53.824 C149.581331,54.9333389 149.336,56.1493267 149.336,57.472 L149.336,70.208 C149.207999,70.933337 148.856003,71.5733306 148.28,72.128 C147.703997,72.6826694 146.989338,72.96 146.136,72.96 L146.136,72.96 Z M201.944,32 C202.712003,32 203.394663,32.2986637 203.992,32.896 C204.589336,33.4933363 204.951999,34.2399955 205.08,35.136 L205.08,45.12 C206.872009,43.9679942 208.567992,43.1680022 210.168,42.72 C211.768008,42.2719978 213.165327,42.048 214.36,42.048 C216.450677,42.048 218.434657,42.4319962 220.312,43.2 C222.189342,43.9680038 223.831993,45.0346598 225.24,46.4 C226.648007,47.7653402 227.767995,49.3653242 228.6,51.2 C229.432004,53.0346758 229.848,54.9973229 229.848,57.088 L229.848,69.824 C229.848,70.6773376 229.538669,71.4133302 228.92,72.032 C228.30133,72.6506698 227.544004,72.9813331 226.648,73.024 C225.837329,73.024 225.144002,72.7360029 224.568,72.16 C223.991997,71.5839971 223.64,70.8693376 223.512,70.016 L223.512,57.536 C223.512,56.2986605 223.277335,55.1253389 222.808,54.016 C222.338664,52.9066611 221.69867,51.9253376 220.888,51.072 C220.077329,50.2186624 219.106672,49.5466691 217.976,49.056 C216.845327,48.5653309 215.640006,48.32 214.36,48.32 C213.12266,48.32 211.981338,48.5439978 210.936,48.992 C209.890661,49.4400022 208.952004,50.0586627 208.12,50.848 C207.287995,51.6373373 206.605336,52.565328 206.072,53.632 C205.538664,54.698672 205.208,55.8506605 205.08,57.088 L205.08,69.824 C205.08,70.6773376 204.781336,71.4133302 204.184,72.032 C203.586663,72.6506698 202.818671,72.9813331 201.88,73.024 C201.154663,73.024 200.514669,72.7253363 199.96,72.128 C199.40533,71.5306637 199.021334,70.8053376 198.808,69.952 L198.808,34.816 C198.978667,34.090663 199.330664,33.4400029 199.864,32.864 C200.397336,32.2879971 201.090662,32 201.944,32 L201.944,32 Z M237.079999,41.856 C237.933337,41.856 238.690663,42.122664 239.351999,42.656 C240.013336,43.189336 240.343999,43.8826624 240.343999,44.736 L240.343999,57.344 C240.343999,58.5813395 240.578664,59.7546611 241.047999,60.864 C241.517335,61.9733389 242.157329,62.9439958 242.967999,63.776 C243.77867,64.6080042 244.749327,65.2693309 245.879999,65.76 C247.010672,66.2506691 248.215993,66.496 249.495999,66.496 C250.648005,66.496 251.778661,66.2720022 252.887999,65.824 C253.997338,65.3759978 254.989328,64.7680038 255.863999,64 C256.73867,63.2319962 257.431997,62.3040054 257.943999,61.216 C258.456002,60.1279946 258.711999,58.9440064 258.711999,57.664 L258.711999,44.928 C258.711999,44.0746624 259.010663,43.3493363 259.607999,42.752 C260.205336,42.1546637 260.951995,41.856 261.847999,41.856 C262.701337,41.856 263.447996,42.122664 264.087999,42.656 C264.728003,43.189336 265.047999,43.8826624 265.047999,44.736 L265.047999,79.872 C265.047999,80.7253376 264.728003,81.4293306 264.087999,81.984 C263.447996,82.5386694 262.701337,82.816 261.847999,82.816 C261.037329,82.816 260.312003,82.5280029 259.671999,81.952 C259.031996,81.3759971 258.711999,80.6186714 258.711999,79.68 L258.711999,69.888 C257.005324,70.954672 255.373341,71.7119978 253.815999,72.16 C252.258658,72.6080022 250.818673,72.832 249.495999,72.832 C247.405322,72.832 245.421342,72.4266707 243.543999,71.616 C241.666657,70.8053293 240.01334,69.696007 238.583999,68.288 C237.154659,66.879993 236.024004,65.1946765 235.191999,63.232 C234.359995,61.2693235 233.943999,59.1360115 233.943999,56.832 L233.943999,44.928 C233.943999,44.0746624 234.242663,43.3493363 234.839999,42.752 C235.437336,42.1546637 236.183995,41.856 237.079999,41.856 L237.079999,41.856 Z M297.751999,32.064 C298.477336,32.0213331 299.159996,32.3093302 299.799999,32.928 C300.440002,33.5466698 300.759999,34.218663 300.759999,34.944 L300.759999,57.408 C300.759999,59.4986771 300.333337,61.4826573 299.479999,63.36 C298.626662,65.2373427 297.474673,66.879993 296.023999,68.288 C294.573325,69.696007 292.920009,70.8159958 291.063999,71.648 C289.20799,72.4800042 287.256009,72.896 285.207999,72.896 C283.117322,72.896 281.133342,72.4906707 279.255999,71.68 C277.378657,70.8693293 275.736006,69.760007 274.327999,68.352 C272.919992,66.943993 271.800003,65.3013427 270.967999,63.424 C270.135995,61.5466573 269.719999,59.541344 269.719999,57.408 C269.719999,55.1039885 270.093329,53.0773421 270.839999,51.328 C271.58667,49.5786579 272.706658,47.9360077 274.199999,46.4 L274.199999,46.464 C275.778674,44.9706592 277.517323,43.8400038 279.415999,43.072 C281.314675,42.3039962 283.266656,41.92 285.271999,41.92 C286.466672,41.92 287.885324,42.1119981 289.527999,42.496 C291.170674,42.8800019 292.802658,43.6266611 294.423999,44.736 L294.423999,35.264 C294.423999,34.8373312 294.509332,34.4320019 294.679999,34.048 C294.850667,33.6639981 295.074665,33.3120016 295.351999,32.992 C295.629334,32.6719984 295.959997,32.4266675 296.343999,32.256 C296.728001,32.0853325 297.111997,32.0213331 297.495999,32.064 L297.751999,32.064 Z M294.423999,57.408 C294.423999,56.2559942 294.178668,55.1253389 293.687999,54.016 C293.19733,52.9066611 292.525337,51.914671 291.671999,51.04 C290.818662,50.165329 289.837338,49.4720026 288.727999,48.96 C287.61866,48.4479974 286.445339,48.192 285.207999,48.192 C283.97066,48.192 282.786672,48.4373309 281.655999,48.928 C280.525327,49.4186691 279.544003,50.0799958 278.711999,50.912 C277.879995,51.7440042 277.218668,52.7253277 276.727999,53.856 C276.23733,54.9866723 275.991999,56.1706605 275.991999,57.408 C275.991999,58.6880064 276.23733,59.8826611 276.727999,60.992 C277.218668,62.1013389 277.879995,63.0719958 278.711999,63.904 C279.544003,64.7360042 280.525327,65.3973309 281.655999,65.888 C282.786672,66.3786691 283.97066,66.624 285.207999,66.624 C286.445339,66.624 287.61866,66.3786691 288.727999,65.888 C289.837338,65.3973309 290.818662,64.7360042 291.671999,63.904 C292.525337,63.0719958 293.19733,62.1013389 293.687999,60.992 C294.178668,59.8826611 294.423999,58.6880064 294.423999,57.408 L294.423999,57.408 Z M308.951999,72.96 C308.141328,72.96 307.448002,72.6613363 306.871999,72.064 C306.295996,71.4666637 305.944,70.7413376 305.815999,69.888 L305.815999,57.024 C305.858666,54.9333229 306.295995,52.992009 307.127999,51.2 C307.960003,49.407991 309.079992,47.8400067 310.487999,46.496 C311.896006,45.1519933 313.52799,44.0853373 315.383999,43.296 C317.240008,42.5066627 319.213322,42.0693338 321.303999,41.984 C322.11467,42.0266669 322.818663,42.3679968 323.415999,43.008 C324.013335,43.6480032 324.375998,44.3519962 324.503999,45.12 C324.418665,45.9306707 324.077335,46.6453302 323.479999,47.264 C322.882663,47.8826698 322.157337,48.2133331 321.303999,48.256 C320.06666,48.256 318.893338,48.4906643 317.783999,48.96 C316.67466,49.4293357 315.704003,50.0799958 314.871999,50.912 C314.039995,51.7440042 313.378668,52.7146611 312.887999,53.824 C312.39733,54.9333389 312.151999,56.1493267 312.151999,57.472 L312.151999,70.208 C312.023998,70.933337 311.672002,71.5733306 311.095999,72.128 C310.519996,72.6826694 309.805337,72.96 308.951999,72.96 L308.951999,72.96 Z M340.503999,42.56 C342.594676,42.56 344.56799,42.9759958 346.423999,43.808 C348.280008,44.6400042 349.911992,45.759993 351.319999,47.168 C352.728006,48.576007 353.847995,50.2186573 354.679999,52.096 C355.512003,53.9733427 355.927999,55.978656 355.927999,58.112 C355.927999,60.245344 355.52267,62.2399907 354.711999,64.096 C353.901328,65.9520093 352.802672,67.583993 351.415999,68.992 C350.029325,70.400007 348.397342,71.5093293 346.519999,72.32 C344.642656,73.1306707 342.61601,73.536 340.439999,73.536 C338.306655,73.536 336.301342,73.1520038 334.423999,72.384 C332.546656,71.6159962 330.904006,70.5386736 329.495999,69.152 C328.087992,67.7653264 326.97867,66.1333427 326.167999,64.256 C325.357328,62.3786573 324.951999,60.3306778 324.951999,58.112 C324.951999,55.978656 325.346662,53.9840093 326.135999,52.128 C326.925336,50.2719907 328.023992,48.6506736 329.431999,47.264 C330.840006,45.8773264 332.493323,44.7680042 334.391999,43.936 C336.290675,43.1039958 338.327988,42.6453338 340.503999,42.56 L340.503999,42.56 Z M340.439999,48.896 C339.202659,48.896 338.018671,49.1306643 336.887999,49.6 C335.757327,50.0693357 334.776003,50.7199958 333.943999,51.552 C333.111995,52.3840042 332.450668,53.3546611 331.959999,54.464 C331.46933,55.5733389 331.223999,56.7893267 331.223999,58.112 C331.223999,59.3493395 331.46933,60.5333277 331.959999,61.664 C332.450668,62.7946723 333.111995,63.7866624 333.943999,64.64 C334.776003,65.4933376 335.757327,66.1653309 336.887999,66.656 C338.018671,67.1466691 339.202659,67.392 340.439999,67.392 C341.677338,67.392 342.861327,67.1466691 343.991999,66.656 C345.122671,66.1653309 346.103995,65.4933376 346.935999,64.64 C347.768003,63.7866624 348.42933,62.7946723 348.919999,61.664 C349.410668,60.5333277 349.655999,59.3493395 349.655999,58.112 C349.527998,55.5946541 348.632007,53.4720086 346.967999,51.744 C345.303991,50.0159914 343.149345,49.0666675 340.503999,48.896 L340.439999,48.896 Z" id="rehydro-copy" fill="#FFFFFF"></path>
                <g id="Page-1" stroke="#FFFFFF" stroke-width="8">
                    <path d="M60.0119667,14.53535 C51.3851148,5.83235 43.6030222,0.1286 42.7291333,0.1286 C40.7057444,0.1286 0.836244444,31.34735 0.836244444,59.1191 C0.836244444,93.5801 35.27195,112.999999 60.0119685,112.999999 C85.5250425,112.999999 119.176485,93.5801 119.176485,59.1191 C119.176485,31.34735 79.3249111,0.1286 77.2835963,0.1286 C76.4164296,0.1286 68.6365778,5.83235 60.0119667,14.53535" id="Stroke-1"></path>
                    <path d="M60.0056926,66.412025 C49.3375259,66.412025 40.6927481,59.185025 40.6927481,44.647775 C40.6927481,30.110525 59.0735444,13.773275 60.0056926,13.773275 C60.9490444,13.773275 79.3208794,30.2955485 79.3208778,44.647775 C79.3208762,59.0000015 70.6738593,66.412025 60.0056926,66.412025 Z" id="Stroke-3"></path>
                </g>
                <g id="Path-16" transform="translate(50.000000, 9.000000)">
                    <mask id="mask-2" fill="white">
                        <use xlink:href="#path-1"></use>
                    </mask>
                    <use id="Mask" fill="#FFFFFF" xlink:href="#path-1"></use>
                    <g mask="url(#mask-2)">
                        <use fill="black" fill-opacity="1" filter="url(#filter-4)" xlink:href="#path-3"></use>
                        <use fill="#FFFFFF" fill-rule="evenodd" xlink:href="#path-3"></use>
                    </g>
                </g>
            </g>
        </g>
    </g>
</svg>